<svg xmlns="http://www.w3.org/2000/svg" viewBox="0 0 480 480" width="480" height="480">
  <defs>
    <linearGradient id="bg" x1="0" y1="0" x2="1" y2="1">
      <stop offset="0" stop-color="#16324A"/><stop offset="1" stop-color="#0B1B2B"/>
    </linearGradient>
  </defs>
  <rect width="480" height="480" fill="url(#bg)"/>
  <circle cx="88" cy="192" r="3.1" fill="#F7FAFC" opacity="0.22"/><circle cx="164" cy="144" r="1.9" fill="#F7FAFC" opacity="0.18"/><circle cx="306" cy="322" r="2.4" fill="#F7FAFC" opacity="0.08"/><circle cx="444" cy="397" r="2.1" fill="#F7FAFC" opacity="0.10"/><circle cx="411" cy="103" r="2.3" fill="#F7FAFC" opacity="0.18"/><circle cx="298" cy="302" r="2.1" fill="#F7FAFC" opacity="0.18"/><circle cx="369" cy="434" r="2.9" fill="#F7FAFC" opacity="0.12"/><circle cx="300" cy="13" r="3.1" fill="#F7FAFC" opacity="0.10"/><circle cx="69" cy="151" r="1.8" fill="#F7FAFC" opacity="0.22"/><circle cx="150" cy="433" r="1.0" fill="#F7FAFC" opacity="0.08"/><circle cx="142" cy="112" r="1.9" fill="#F7FAFC" opacity="0.31"/><circle cx="359" cy="12" r="2.5" fill="#F7FAFC" opacity="0.06"/><circle cx="284" cy="60" r="1.6" fill="#F7FAFC" opacity="0.26"/><circle cx="101" cy="147" r="1.2" fill="#F7FAFC" opacity="0.20"/>
  <g opacity="0.9"><path d="M120 210 q60 -46 120 0 q60 46 120 0" fill="none" stroke="#E8622C" stroke-width="10" stroke-linecap="round"/>
    <path d="M120 250 q60 -46 120 0 q60 46 120 0" fill="none" stroke="#E8622C" stroke-width="10" stroke-linecap="round" opacity="0.55"/></g>
  <text x="240" y="392" text-anchor="middle" font-family="Georgia, 'Times New Roman', serif" font-size="30" font-weight="600" fill="#F7FAFC">Bise</text>
  <text x="240" y="424" text-anchor="middle" font-family="Arial, Helvetica, sans-serif" font-size="13" letter-spacing="4" fill="#E8622C">BORÉALE</text>
  <text x="240" y="452" text-anchor="middle" font-family="Arial, Helvetica, sans-serif" font-size="10" fill="#F7FAFC" opacity="0.45">visuel provisoire — photo produit à venir</text>
</svg>
