<svg xmlns="http://www.w3.org/2000/svg" viewBox="0 0 480 480" width="480" height="480">
  <defs>
    <linearGradient id="bg" x1="0" y1="0" x2="1" y2="1">
      <stop offset="0" stop-color="#3D2317"/><stop offset="1" stop-color="#1C0F08"/>
    </linearGradient>
  </defs>
  <rect width="480" height="480" fill="url(#bg)"/>
  <circle cx="104" cy="365" r="2.2" fill="#F7FAFC" opacity="0.29"/><circle cx="220" cy="68" r="1.3" fill="#F7FAFC" opacity="0.22"/><circle cx="269" cy="169" r="3.0" fill="#F7FAFC" opacity="0.15"/><circle cx="181" cy="107" r="1.1" fill="#F7FAFC" opacity="0.28"/><circle cx="447" cy="122" r="2.2" fill="#F7FAFC" opacity="0.30"/><circle cx="443" cy="335" r="1.6" fill="#F7FAFC" opacity="0.31"/><circle cx="246" cy="231" r="2.4" fill="#F7FAFC" opacity="0.27"/><circle cx="448" cy="109" r="1.8" fill="#F7FAFC" opacity="0.14"/><circle cx="170" cy="332" r="1.5" fill="#F7FAFC" opacity="0.08"/><circle cx="53" cy="360" r="2.9" fill="#F7FAFC" opacity="0.09"/><circle cx="171" cy="421" r="1.4" fill="#F7FAFC" opacity="0.19"/><circle cx="322" cy="46" r="2.0" fill="#F7FAFC" opacity="0.10"/><circle cx="76" cy="353" r="2.7" fill="#F7FAFC" opacity="0.07"/><circle cx="440" cy="351" r="2.4" fill="#F7FAFC" opacity="0.29"/>
  <g opacity="0.9"><path d="M240 120 c 34 44 56 66 56 100 a56 56 0 0 1 -112 0 c0 -22 12 -40 26 -56 c4 14 12 22 20 24 c-6 -26 -4 -46 10 -68z" fill="#E8622C"/></g>
  <text x="240" y="392" text-anchor="middle" font-family="Georgia, 'Times New Roman', serif" font-size="30" font-weight="600" fill="#F7FAFC">Foyer</text>
  <text x="240" y="424" text-anchor="middle" font-family="Arial, Helvetica, sans-serif" font-size="13" letter-spacing="4" fill="#E8622C">BORÉALE</text>
  <text x="240" y="452" text-anchor="middle" font-family="Arial, Helvetica, sans-serif" font-size="10" fill="#F7FAFC" opacity="0.45">visuel provisoire — photo produit à venir</text>
</svg>
