<svg xmlns="http://www.w3.org/2000/svg" viewBox="0 0 480 480" width="480" height="480">
  <defs>
    <linearGradient id="bg" x1="0" y1="0" x2="1" y2="1">
      <stop offset="0" stop-color="#0B1B2B"/><stop offset="1" stop-color="#05101B"/>
    </linearGradient>
  </defs>
  <rect width="480" height="480" fill="url(#bg)"/>
  <circle cx="64" cy="432" r="1.7" fill="#F7FAFC" opacity="0.30"/><circle cx="464" cy="416" r="1.2" fill="#F7FAFC" opacity="0.15"/><circle cx="357" cy="462" r="1.7" fill="#F7FAFC" opacity="0.11"/><circle cx="284" cy="189" r="1.1" fill="#F7FAFC" opacity="0.16"/><circle cx="69" cy="436" r="2.8" fill="#F7FAFC" opacity="0.15"/><circle cx="299" cy="408" r="1.3" fill="#F7FAFC" opacity="0.07"/><circle cx="33" cy="444" r="2.8" fill="#F7FAFC" opacity="0.29"/><circle cx="72" cy="432" r="1.8" fill="#F7FAFC" opacity="0.13"/><circle cx="63" cy="146" r="2.7" fill="#F7FAFC" opacity="0.13"/><circle cx="126" cy="45" r="1.9" fill="#F7FAFC" opacity="0.08"/><circle cx="5" cy="480" r="2.7" fill="#F7FAFC" opacity="0.25"/><circle cx="370" cy="227" r="1.1" fill="#F7FAFC" opacity="0.17"/><circle cx="425" cy="437" r="3.0" fill="#F7FAFC" opacity="0.29"/><circle cx="127" cy="254" r="1.0" fill="#F7FAFC" opacity="0.09"/>
  <g opacity="0.9"><rect x="140" y="170" width="200" height="150" rx="14" fill="none" stroke="#E8622C" stroke-width="10"/>
    <path d="M240 170 V320 M140 235 H340" stroke="#E8622C" stroke-width="8"/>
    <path d="M205 170 c0 -26 70 -26 70 0" fill="none" stroke="#E8622C" stroke-width="8"/></g>
  <text x="240" y="392" text-anchor="middle" font-family="Georgia, 'Times New Roman', serif" font-size="30" font-weight="600" fill="#F7FAFC">Pack Auto Hiver</text>
  <text x="240" y="424" text-anchor="middle" font-family="Arial, Helvetica, sans-serif" font-size="13" letter-spacing="4" fill="#E8622C">BORÉALE</text>
  <text x="240" y="452" text-anchor="middle" font-family="Arial, Helvetica, sans-serif" font-size="10" fill="#F7FAFC" opacity="0.45">visuel provisoire — photo produit à venir</text>
</svg>
