<svg xmlns="http://www.w3.org/2000/svg" viewBox="0 0 480 480" width="480" height="480">
  <defs>
    <linearGradient id="bg" x1="0" y1="0" x2="1" y2="1">
      <stop offset="0" stop-color="#33445C"/><stop offset="1" stop-color="#182636"/>
    </linearGradient>
  </defs>
  <rect width="480" height="480" fill="url(#bg)"/>
  <circle cx="78" cy="451" r="2.5" fill="#F7FAFC" opacity="0.19"/><circle cx="152" cy="152" r="1.0" fill="#F7FAFC" opacity="0.25"/><circle cx="325" cy="29" r="2.1" fill="#F7FAFC" opacity="0.25"/><circle cx="60" cy="273" r="2.0" fill="#F7FAFC" opacity="0.06"/><circle cx="251" cy="427" r="2.5" fill="#F7FAFC" opacity="0.22"/><circle cx="437" cy="475" r="2.1" fill="#F7FAFC" opacity="0.11"/><circle cx="425" cy="389" r="1.3" fill="#F7FAFC" opacity="0.28"/><circle cx="109" cy="275" r="1.0" fill="#F7FAFC" opacity="0.25"/><circle cx="14" cy="320" r="2.6" fill="#F7FAFC" opacity="0.25"/><circle cx="317" cy="150" r="1.0" fill="#F7FAFC" opacity="0.21"/><circle cx="424" cy="402" r="2.6" fill="#F7FAFC" opacity="0.13"/><circle cx="165" cy="114" r="3.1" fill="#F7FAFC" opacity="0.15"/><circle cx="352" cy="255" r="2.0" fill="#F7FAFC" opacity="0.16"/><circle cx="319" cy="37" r="1.5" fill="#F7FAFC" opacity="0.24"/>
  <g opacity="0.9"><path d="M130 235 L240 140 L350 235" fill="none" stroke="#F6EFE6" stroke-width="12" stroke-linecap="round"/>
    <rect x="160" y="235" width="160" height="95" rx="10" fill="none" stroke="#F6EFE6" stroke-width="10"/></g>
  <text x="240" y="392" text-anchor="middle" font-family="Georgia, 'Times New Roman', serif" font-size="30" font-weight="600" fill="#F7FAFC">Cocon</text>
  <text x="240" y="424" text-anchor="middle" font-family="Arial, Helvetica, sans-serif" font-size="13" letter-spacing="4" fill="#F6EFE6">BORÉALE</text>
  <text x="240" y="452" text-anchor="middle" font-family="Arial, Helvetica, sans-serif" font-size="10" fill="#F7FAFC" opacity="0.45">visuel provisoire — photo produit à venir</text>
</svg>
